<?xml version="1.0" standalone="no"?>
<!DOCTYPE svg PUBLIC "-//W3C//DTD SVG 20010904//EN"
 "http://www.w3.org/TR/2001/REC-SVG-20010904/DTD/svg10.dtd">
<svg version="1.0" xmlns="http://www.w3.org/2000/svg"
 width="1000.000000pt" height="1000.000000pt" viewBox="0 0 1000.000000 1000.000000"
 preserveAspectRatio="xMidYMid meet">

<g transform="translate(0.000000,1000.000000) scale(0.100000,-0.100000)"
fill="#000000" stroke="none">
<path d="M0 7039 l0 -2960 32 5 c18 3 51 11 73 17 127 34 220 51 258 47 31 -3
31 -3 33 -63 1 -33 -1 -64 -5 -70 -9 -17 -8 -75 2 -75 5 0 6 -8 2 -17 -12 -27
-14 -180 -4 -248 15 -104 29 -329 39 -638 5 -164 12 -303 15 -308 4 -5 12 -6
18 -2 39 24 40 19 35 -182 -6 -223 -1 -242 69 -266 44 -16 308 -15 359 2 37
12 54 44 54 106 0 43 3 49 77 123 92 92 147 121 329 179 72 22 167 59 210 80
96 48 205 143 258 222 21 33 46 60 55 60 9 1 23 2 31 3 8 0 23 17 32 36 9 19
22 40 27 47 6 7 11 19 11 27 0 8 4 17 9 20 4 3 11 27 15 53 4 32 13 53 28 64
13 10 22 29 23 50 6 86 12 96 76 111 49 12 59 12 59 1 0 -8 7 -16 16 -20 8 -3
13 -12 10 -19 -3 -8 1 -14 9 -14 9 0 15 -9 15 -21 0 -12 8 -23 19 -26 15 -4
21 -21 31 -84 7 -43 16 -76 21 -73 17 10 22 -50 15 -175 l-7 -127 27 -25 c22
-20 25 -30 20 -62 -14 -87 -28 -104 -104 -126 -47 -14 -75 -29 -85 -44 -10
-16 -17 -64 -22 -145 -9 -139 5 -200 50 -220 13 -6 85 -11 162 -12 76 0 253
-2 393 -3 189 -1 263 2 286 11 51 21 64 64 64 205 0 139 -13 174 -74 204 -37
17 -51 45 -81 158 -19 71 -34 375 -18 375 6 0 13 32 17 72 3 40 12 79 19 87 7
9 21 42 31 74 9 31 21 57 25 57 5 0 15 15 22 33 7 17 24 40 36 50 13 10 23 25
23 34 0 9 6 13 14 10 13 -5 31 12 54 50 6 9 17 10 42 3 25 -7 36 -6 42 3 6 9
8 9 8 0 0 -7 6 -13 13 -13 32 0 87 -22 87 -35 0 -8 4 -15 9 -15 5 0 13 -9 16
-20 3 -11 14 -20 24 -20 10 0 26 -15 37 -35 10 -19 24 -35 31 -35 6 0 14 -8
17 -18 3 -9 20 -33 38 -52 17 -19 40 -55 51 -80 11 -24 26 -50 33 -57 19 -20
39 -120 38 -198 0 -109 -54 -214 -297 -583 -53 -80 -97 -173 -97 -202 0 -53 6
-55 192 -58 237 -5 280 6 376 92 51 46 133 106 146 106 6 1 60 7 119 14 l108
12 47 -27 c26 -15 88 -63 139 -107 51 -43 106 -85 123 -92 24 -10 63 -10 180
-2 83 5 159 8 170 5 11 -3 35 -2 54 1 29 6 35 11 40 42 6 27 2 45 -17 77 -46
80 -92 153 -138 217 -64 89 -191 304 -216 365 -30 70 -50 178 -35 183 7 2 12
19 12 38 0 44 20 124 30 124 5 0 22 29 39 65 16 36 34 65 40 65 5 0 21 18 34
40 13 22 26 37 30 34 3 -4 12 5 18 20 7 14 19 26 27 26 8 0 23 11 34 25 11 14
24 22 29 19 6 -3 18 3 27 14 9 10 36 22 59 25 38 6 44 4 59 -18 9 -14 24 -25
33 -25 11 0 17 -10 18 -37 1 -20 6 -39 11 -42 4 -3 11 -14 15 -24 4 -10 11
-16 16 -13 9 6 21 -72 21 -141 0 -23 5 -43 11 -45 7 -2 13 -82 17 -223 l7
-219 25 -6 25 -6 6 -254 c3 -140 9 -265 13 -277 12 -32 58 -46 181 -53 61 -4
142 -13 180 -20 78 -14 350 -8 420 9 22 6 104 11 182 11 218 0 223 5 223 222
0 134 -2 145 -23 172 -21 26 -30 29 -123 38 -54 5 -147 7 -205 3 l-105 -6 -12
26 c-18 38 -15 57 14 100 23 35 141 143 166 154 5 1 20 14 34 28 20 20 32 24
56 19 47 -9 93 11 106 48 6 17 12 85 13 151 2 130 -10 188 -42 205 -22 12 -26
60 -5 60 7 0 17 15 22 33 7 22 17 33 32 35 12 2 22 8 22 13 0 6 4 8 9 5 5 -3
12 5 15 19 4 16 15 27 31 30 14 3 36 7 50 10 17 4 23 10 19 18 -5 9 -4 9 7 0
7 -7 28 -13 46 -13 29 0 34 -4 39 -30 4 -17 13 -30 21 -30 11 0 14 -9 11 -35
-3 -29 -1 -35 14 -35 15 0 18 -9 18 -65 0 -42 4 -65 11 -65 8 0 10 -22 7 -72
-5 -65 -3 -74 18 -97 13 -14 24 -22 24 -18 0 4 9 3 20 -3 19 -10 20 -21 20
-413 0 -247 4 -416 10 -439 6 -21 21 -43 33 -50 12 -7 75 -16 142 -19 66 -3
154 -12 195 -19 81 -13 302 -8 375 10 22 5 104 10 183 10 172 0 192 7 216 77
13 38 15 70 10 153 -8 132 -18 176 -47 192 -15 8 -103 13 -282 14 -143 2 -275
6 -293 9 -59 11 -64 40 -57 314 l7 236 34 31 c31 28 34 36 35 90 2 93 8 106
62 124 37 12 49 21 53 40 21 102 72 230 92 230 24 0 40 25 34 55 l-5 29 25
-16 c28 -19 38 -15 38 15 0 16 3 17 14 8 9 -8 16 -8 20 -2 9 14 61 6 88 -13
15 -10 25 -12 34 -6 6 6 19 8 28 4 12 -5 13 -10 5 -26 -13 -23 -8 -30 23 -32
16 -1 22 -7 21 -20 -1 -21 19 -46 37 -46 6 0 10 -8 9 -18 -3 -21 11 -73 23
-88 5 -7 11 -35 15 -62 6 -56 11 -59 103 -63 56 -3 80 -14 80 -39 0 -36 58
-190 95 -250 41 -68 152 -222 185 -259 12 -13 28 -38 36 -56 l13 -32 -129 -2
c-160 -2 -196 -14 -206 -68 -9 -48 11 -143 43 -207 31 -61 99 -142 135 -162
14 -7 47 -31 72 -53 90 -78 342 -139 531 -129 127 8 302 52 373 96 31 19 75
38 97 41 35 5 46 15 93 76 135 176 172 348 119 546 -24 89 -54 136 -139 215
-42 40 -132 88 -195 104 -47 12 -49 14 -45 47 3 25 17 44 55 78 57 50 74 53
220 36 74 -8 77 -7 94 29 35 71 44 123 40 218 -3 54 -8 108 -12 122 -4 14 -9
36 -10 50 -2 23 -20 96 -33 130 -3 8 -4 21 -3 28 1 6 -3 12 -10 12 -8 0 -8 5
2 16 19 23 20 47 3 61 -14 10 -14 14 1 37 13 20 15 29 6 40 -8 10 -3 23 22 57
98 130 181 313 221 492 6 27 9 28 54 23 26 -3 56 -7 67 -10 11 -3 35 -7 53
-10 l32 -5 0 2614 0 2615 -5000 0 -5000 0 0 -2961z m2544 66 c272 -60 296 -70
296 -129 0 -27 -89 -436 -466 -2135 -60 -273 -100 -431 -110 -443 -16 -17 -38
-18 -324 -18 -279 0 -310 2 -330 18 -18 15 -23 33 -32 132 -8 89 -7 115 2 118
9 3 9 6 1 11 -6 4 -14 44 -18 89 l-6 82 29 1 29 1 -32 9 c-29 9 -33 14 -34 47
-2 97 -26 365 -32 352 -4 -8 -51 -196 -105 -417 -65 -266 -105 -410 -117 -423
-17 -19 -30 -20 -347 -20 -378 0 -362 -4 -372 92 -9 83 -103 1417 -121 1718
-4 52 -13 190 -21 305 -37 531 -37 525 7 556 20 15 64 20 270 30 136 6 258 9
272 5 15 -3 31 -16 38 -27 6 -12 27 -219 47 -460 20 -241 37 -437 38 -436 2 2
53 209 113 461 68 289 115 464 125 474 19 20 121 30 305 31 107 1 131 -2 168
-20 52 -25 108 -95 127 -158 7 -25 29 -182 47 -349 19 -166 36 -302 39 -302 3
0 41 170 84 378 43 207 83 391 88 409 9 34 50 73 77 73 9 0 128 -25 265 -55z
m2019 17 c65 -29 145 -113 189 -197 80 -154 155 -467 283 -1180 47 -264 117
-654 156 -867 38 -213 69 -402 69 -420 0 -19 -9 -41 -22 -55 l-21 -23 -334 0
c-217 0 -341 4 -354 11 -30 16 -36 40 -49 219 -6 91 -13 174 -15 185 -2 11 -4
46 -4 78 -1 47 -4 57 -18 57 -10 0 -146 -25 -304 -56 l-285 -56 -48 -199 c-38
-160 -52 -202 -69 -214 -25 -17 -152 -19 -483 -8 -189 6 -199 7 -221 29 -13
13 -23 35 -23 50 0 77 302 1071 432 1419 143 384 460 1147 489 1176 18 18 56
28 234 60 140 26 330 22 398 -9z m2207 18 c275 -29 426 -122 525 -323 104
-211 121 -461 50 -726 -57 -210 -180 -395 -348 -521 -26 -19 -46 -40 -44 -45
1 -6 91 -178 201 -383 116 -219 199 -384 199 -400 0 -35 -18 -48 -283 -221
-231 -151 -258 -162 -297 -118 -11 12 -50 88 -88 169 -110 240 -367 699 -390
698 -5 -1 -55 -13 -110 -28 l-100 -27 -7 -378 c-4 -229 -11 -385 -18 -397 -6
-10 -27 -24 -48 -30 -52 -14 -500 -13 -542 1 -60 21 -61 32 -35 424 60 890 75
1107 80 1200 3 55 10 152 15 215 5 63 16 228 25 365 26 432 21 408 83 425 40
11 634 85 797 99 142 12 226 12 335 1z m2210 -30 c106 -30 185 -75 256 -145
67 -66 104 -135 131 -242 14 -54 17 -114 18 -285 0 -289 30 -262 -293 -266
-256 -3 -313 3 -327 36 -4 9 -11 90 -15 179 -5 100 -13 172 -21 189 -17 34
-60 47 -111 34 -107 -29 -169 -246 -107 -375 37 -77 134 -163 314 -278 194
-124 246 -165 345 -273 122 -134 187 -283 203 -466 16 -174 -83 -445 -217
-595 -135 -151 -390 -243 -676 -243 -244 0 -431 51 -725 199 -126 64 -151 80
-158 105 -8 25 3 53 89 228 55 110 110 209 123 219 32 25 57 24 111 -7 25 -15
97 -52 160 -84 260 -130 386 -149 487 -73 81 60 74 227 -13 319 -44 46 -123
102 -284 199 -171 104 -354 247 -410 320 -85 110 -125 268 -117 455 7 152 33
248 107 396 138 276 333 419 638 469 132 22 394 14 492 -15z"/>
<path d="M1568 5483 c7 -3 16 -2 19 1 4 3 -2 6 -13 5 -11 0 -14 -3 -6 -6z"/>
<path d="M1655 5470 c-3 -5 -1 -10 4 -10 6 0 11 5 11 10 0 6 -2 10 -4 10 -3 0
-8 -4 -11 -10z"/>
<path d="M1958 5413 c6 -2 18 -2 25 0 6 3 1 5 -13 5 -14 0 -19 -2 -12 -5z"/>
<path d="M2030 5400 c0 -5 5 -10 11 -10 5 0 7 5 4 10 -3 6 -8 10 -11 10 -2 0
-4 -4 -4 -10z"/>
<path d="M2190 5390 c0 -5 -7 -7 -15 -4 -8 4 -15 1 -15 -5 0 -16 34 -31 59
-24 21 5 21 7 5 24 -19 21 -34 25 -34 9z"/>
<path d="M1940 5375 c0 -11 7 -15 23 -13 12 2 22 8 22 13 0 6 -10 11 -22 13
-16 2 -23 -2 -23 -13z"/>
<path d="M1867 5346 c-3 -8 -1 -17 6 -20 9 -3 8 -7 -2 -14 -10 -8 -6 -11 18
-17 18 -4 37 -15 44 -26 12 -20 47 -26 47 -9 0 6 -12 15 -27 21 -31 11 -52 37
-53 62 0 21 -26 23 -33 3z"/>
<path d="M1987 5345 c-18 -13 -18 -14 2 -24 23 -13 61 -15 61 -3 -1 12 -26 42
-36 42 -5 0 -17 -7 -27 -15z"/>
<path d="M1941 5206 c-14 -8 -19 -16 -13 -20 13 -8 63 14 56 25 -7 12 -14 11
-43 -5z"/>
<path d="M2021 5201 c-9 -6 -10 -11 -2 -15 6 -4 11 -14 11 -23 0 -9 8 -22 18
-29 13 -10 14 -16 5 -22 -9 -6 -4 -13 17 -25 19 -12 31 -14 35 -7 4 7 11 7 18
2 16 -12 68 10 59 24 -9 15 -79 37 -96 31 -28 -11 -37 9 -16 35 17 23 18 27 4
32 -21 8 -36 7 -53 -3z"/>
<path d="M2160 5165 c-10 -12 -9 -16 4 -21 22 -8 46 2 46 21 0 19 -34 20 -50
0z"/>
<path d="M1720 5150 c0 -14 7 -20 23 -20 20 1 20 2 4 11 -9 6 -15 14 -12 20 4
5 1 9 -4 9 -6 0 -11 -9 -11 -20z"/>
<path d="M1840 5151 c-8 -15 -5 -17 16 -13 32 6 39 18 14 25 -13 3 -24 -1 -30
-12z"/>
<path d="M1728 5103 c7 -3 16 -2 19 1 4 3 -2 6 -13 5 -11 0 -14 -3 -6 -6z"/>
<path d="M2217 5103 c-12 -11 -8 -23 8 -23 8 0 15 7 15 15 0 16 -12 20 -23 8z"/>
<path d="M1848 5083 c7 -3 16 -2 19 1 4 3 -2 6 -13 5 -11 0 -14 -3 -6 -6z"/>
<path d="M1724 5045 c21 -16 32 -13 21 4 -3 6 -14 11 -23 11 -15 -1 -15 -2 2
-15z"/>
<path d="M2174 5049 c-10 -17 23 -46 38 -31 8 8 8 15 -2 27 -15 18 -26 19 -36
4z"/>
<path d="M2116 5031 c-4 -6 -16 -11 -27 -11 -10 0 -19 -4 -19 -10 0 -12 57
-14 64 -2 2 4 1 14 -3 21 -6 9 -11 10 -15 2z"/>
<path d="M1894 5022 c-20 -13 -11 -43 18 -65 37 -27 35 -39 -9 -76 -27 -22
-32 -31 -20 -31 10 0 21 -9 25 -19 6 -17 9 -17 32 9 14 15 24 33 22 39 -2 7 2
18 8 26 10 12 8 18 -10 33 -30 24 -21 47 22 57 32 7 32 7 8 15 -17 5 -29 3
-37 -7 -14 -18 -37 -7 -29 13 6 15 -12 19 -30 6z"/>
<path d="M1826 5013 c-20 -20 15 -74 49 -73 5 0 2 5 -7 11 -10 5 -18 21 -18
34 0 25 -12 39 -24 28z"/>
<path d="M2155 4975 c-11 -11 -31 -20 -45 -20 -15 0 -26 -6 -28 -17 -3 -14 4
-15 40 -11 52 7 61 14 56 44 l-3 24 -20 -20z"/>
<path d="M1692 4955 c0 -16 2 -22 5 -12 2 9 2 23 0 30 -3 6 -5 -1 -5 -18z"/>
<path d="M1746 4863 c9 -36 13 -43 26 -43 7 0 6 5 -2 15 -7 8 -10 24 -7 35 3
13 0 20 -9 20 -11 0 -13 -7 -8 -27z"/>
<path d="M2088 4882 c-25 -5 -23 -11 14 -49 26 -27 29 -35 18 -48 -10 -13 -9
-15 8 -15 18 0 50 26 41 34 -2 1 -22 16 -43 32 -38 28 -38 29 -15 34 17 4 20
7 9 11 -8 3 -23 4 -32 1z"/>
<path d="M2198 4863 c7 -3 16 -2 19 1 4 3 -2 6 -13 5 -11 0 -14 -3 -6 -6z"/>
<path d="M1700 4845 c0 -8 5 -15 10 -15 6 0 10 7 10 15 0 8 -4 15 -10 15 -5 0
-10 -7 -10 -15z"/>
<path d="M1944 4775 c-5 -12 -14 -14 -36 -9 -23 5 -29 3 -26 -7 5 -15 23 -15
78 -2 34 9 35 9 12 22 -19 10 -23 9 -28 -4z"/>
<path d="M2055 4729 c-4 -5 3 -9 14 -9 16 0 21 -6 21 -24 0 -30 14 -41 29 -22
8 10 9 16 1 21 -6 3 -8 10 -5 15 3 4 -8 13 -25 18 -18 7 -32 7 -35 1z"/>
<path d="M1950 4715 c-11 -13 -8 -15 20 -15 19 0 31 1 29 3 -2 1 -11 8 -20 15
-13 10 -19 9 -29 -3z"/>
<path d="M1635 4710 c3 -5 10 -10 16 -10 5 0 9 5 9 10 0 6 -7 10 -16 10 -8 0
-12 -4 -9 -10z"/>
<path d="M1847 4693 c-14 -14 -6 -33 14 -33 17 0 19 3 10 13 -6 8 -8 17 -4 20
3 4 2 7 -4 7 -5 0 -13 -3 -16 -7z"/>
<path d="M2026 4665 c-4 -12 -1 -16 11 -13 18 3 21 20 5 26 -5 1 -12 -4 -16
-13z"/>
<path d="M2180 4650 c-8 -15 -17 -19 -32 -14 -15 4 -19 2 -16 -7 3 -8 19 -15
36 -17 30 -3 32 -1 32 27 0 36 -5 39 -20 11z"/>
<path d="M1790 4655 c0 -10 29 -24 34 -17 3 6 -3 12 -14 15 -11 3 -20 4 -20 2z"/>
<path d="M1684 4639 c-8 -14 11 -33 25 -25 6 4 11 11 11 16 0 13 -29 20 -36 9z"/>
<path d="M1879 4624 c-11 -14 -8 -20 21 -45 l35 -28 -35 -1 c-24 0 -30 -3 -20
-9 22 -12 145 -21 195 -14 43 6 44 6 28 29 -16 25 -49 32 -55 13 -5 -15 -78
-19 -100 -5 -25 15 -22 42 5 50 21 7 21 7 2 16 -32 14 -61 11 -76 -6z"/>
<path d="M1755 4610 c-3 -5 -1 -10 4 -10 6 0 11 5 11 10 0 6 -2 10 -4 10 -3 0
-8 -4 -11 -10z"/>
<path d="M2050 4610 c-13 -8 -12 -10 3 -10 9 0 17 5 17 10 0 12 -1 12 -20 0z"/>
<path d="M1695 4570 c3 -5 8 -10 11 -10 2 0 4 5 4 10 0 6 -5 10 -11 10 -5 0
-7 -4 -4 -10z"/>
<path d="M4481 6884 c0 -11 3 -14 6 -6 3 7 2 16 -1 19 -3 4 -6 -2 -5 -13z"/>
<path d="M4450 6819 c0 -5 5 -7 10 -4 6 3 10 8 10 11 0 2 -4 4 -10 4 -5 0 -10
-5 -10 -11z"/>
<path d="M4490 6800 c0 -5 4 -10 9 -10 6 0 13 5 16 10 3 6 -1 10 -9 10 -9 0
-16 -4 -16 -10z"/>
<path d="M4563 6763 c-22 -8 -14 -33 10 -33 29 0 37 7 30 26 -5 14 -18 17 -40
7z"/>
<path d="M4546 6651 c-3 -5 3 -11 14 -14 24 -6 36 8 14 17 -20 8 -22 8 -28 -3z"/>
<path d="M4280 6590 c0 -5 7 -10 15 -10 8 0 15 5 15 10 0 6 -7 10 -15 10 -8 0
-15 -4 -15 -10z"/>
<path d="M4613 6523 c-20 -8 -15 -23 7 -23 11 0 20 7 20 15 0 15 -6 17 -27 8z"/>
<path d="M3726 6361 c-4 -6 -3 -19 3 -28 9 -17 10 -17 17 0 8 21 -10 45 -20
28z"/>
<path d="M3742 6230 c0 -14 2 -19 5 -12 2 6 2 18 0 25 -3 6 -5 1 -5 -13z"/>
<path d="M4180 6222 c-20 -16 -20 -19 -6 -31 22 -19 46 -6 46 24 0 30 -10 31
-40 7z"/>
<path d="M4660 6170 c0 -5 5 -10 10 -10 6 0 10 5 10 10 0 6 -4 10 -10 10 -5 0
-10 -4 -10 -10z"/>
<path d="M4161 5850 c-50 -164 -94 -305 -96 -312 -4 -10 25 -12 142 -10 82 2
149 5 150 6 10 9 -87 599 -100 613 -2 2 -45 -132 -96 -297z"/>
<path d="M4102 6037 c-11 -12 -25 -39 -31 -61 -5 -21 -17 -46 -25 -55 -7 -9
-28 -61 -45 -116 -17 -55 -42 -114 -56 -131 -13 -18 -31 -56 -39 -85 -7 -30
-22 -70 -31 -91 -20 -40 -14 -78 8 -59 8 6 19 30 26 53 7 24 24 63 38 88 31
56 103 246 103 273 0 11 7 28 14 36 21 23 75 160 66 166 -4 2 -16 -6 -28 -18z"/>
<path d="M4580 5970 c0 -5 5 -10 11 -10 5 0 7 5 4 10 -3 6 -8 10 -11 10 -2 0
-4 -4 -4 -10z"/>
<path d="M4420 5770 c0 -5 5 -10 11 -10 5 0 7 5 4 10 -3 6 -8 10 -11 10 -2 0
-4 -4 -4 -10z"/>
<path d="M4530 5750 c0 -5 5 -10 10 -10 6 0 9 -5 8 -12 -2 -6 5 -14 15 -16 22
-5 24 33 1 42 -23 9 -34 7 -34 -4z"/>
<path d="M4695 5710 c3 -5 17 -10 31 -10 14 0 22 4 19 10 -3 6 -17 10 -31 10
-14 0 -22 -4 -19 -10z"/>
<path d="M4595 5670 c-8 -13 15 -24 27 -12 6 6 4 11 -6 15 -8 3 -18 2 -21 -3z"/>
<path d="M4708 5654 c-33 -18 -34 -20 -8 -61 13 -22 27 -33 43 -33 38 0 39 12
4 33 -23 15 -28 21 -17 25 19 7 40 34 34 44 -7 12 -26 9 -56 -8z"/>
<path d="M3797 5630 c-3 -11 -1 -23 4 -26 5 -3 9 6 9 20 0 31 -6 34 -13 6z"/>
<path d="M4565 5630 c3 -5 10 -10 16 -10 5 0 9 5 9 10 0 6 -7 10 -16 10 -8 0
-12 -4 -9 -10z"/>
<path d="M4630 5604 c0 -8 5 -12 10 -9 6 4 8 11 5 16 -9 14 -15 11 -15 -7z"/>
<path d="M4520 5589 c0 -5 19 -9 42 -9 49 0 47 5 -4 13 -21 3 -38 2 -38 -4z"/>
<path d="M4540 5500 c0 -5 5 -10 10 -10 6 0 10 5 10 10 0 6 -4 10 -10 10 -5 0
-10 -4 -10 -10z"/>
<path d="M4628 5448 c7 -7 12 -20 12 -30 0 -11 7 -18 20 -18 22 0 18 26 -8 48
-20 16 -40 16 -24 0z"/>
<path d="M4560 5265 c-7 -9 -10 -18 -7 -21 10 -10 47 7 47 22 0 19 -24 18 -40
-1z"/>
<path d="M4595 5140 c3 -5 8 -10 11 -10 2 0 4 5 4 10 0 6 -5 10 -11 10 -5 0
-7 -4 -4 -10z"/>
<path d="M4760 5130 c-13 -8 -13 -11 2 -26 14 -14 22 -15 40 -6 13 6 17 11 11
11 -7 1 -13 8 -13 16 0 17 -18 19 -40 5z"/>
<path d="M3850 5110 c0 -5 9 -10 20 -10 11 0 20 5 20 10 0 6 -9 10 -20 10 -11
0 -20 -4 -20 -10z"/>
<path d="M3710 5075 c-19 -23 13 -55 57 -55 31 0 34 2 28 23 -9 29 -15 34 -46
42 -17 4 -30 1 -39 -10z"/>
<path d="M4548 5063 c7 -3 16 -2 19 1 4 3 -2 6 -13 5 -11 0 -14 -3 -6 -6z"/>
<path d="M4808 5058 c-27 -9 -41 -48 -17 -48 5 0 7 -5 4 -11 -4 -5 0 -18 9
-28 16 -17 15 -19 -12 -24 -31 -6 -50 -36 -31 -47 8 -6 8 -13 0 -28 -20 -37
-13 -62 20 -74 19 -7 28 -15 25 -24 -4 -11 6 -14 40 -14 l46 0 -3 -34 c-2 -21
3 -42 13 -53 14 -16 26 -40 56 -115 14 -34 42 -37 41 -5 -1 42 -25 162 -38
185 -7 13 -10 31 -7 39 4 9 2 21 -3 27 -11 13 -22 94 -22 154 0 23 -2 42 -5
42 -3 0 -17 -9 -32 -20 -29 -23 -45 -15 -40 21 2 18 10 25 31 27 34 4 35 19 1
32 -30 12 -40 12 -76 -2z"/>
<path d="M4695 4900 c4 -6 11 -8 16 -5 14 9 11 15 -7 15 -8 0 -12 -5 -9 -10z"/>
<path d="M3532 4888 c6 -18 28 -21 28 -4 0 9 -7 16 -16 16 -9 0 -14 -5 -12
-12z"/>
<path d="M4530 4890 c0 -5 5 -10 10 -10 6 0 10 5 10 10 0 6 -4 10 -10 10 -5 0
-10 -4 -10 -10z"/>
<path d="M3550 4850 c0 -5 -11 -12 -25 -16 -28 -7 -33 -22 -11 -30 15 -6 66
22 66 36 0 4 -7 10 -15 14 -8 3 -15 1 -15 -4z"/>
<path d="M4567 4819 c7 -7 15 -10 18 -7 3 3 -2 9 -12 12 -14 6 -15 5 -6 -5z"/>
<path d="M3498 4703 c7 -3 16 -2 19 1 4 3 -2 6 -13 5 -11 0 -14 -3 -6 -6z"/>
<path d="M3570 4700 c0 -5 5 -10 10 -10 6 0 10 5 10 10 0 6 -4 10 -10 10 -5 0
-10 -4 -10 -10z"/>
<path d="M4650 4532 c0 -5 9 -17 20 -27 20 -18 25 -11 14 19 -6 17 -34 23 -34
8z"/>
<path d="M6448 6913 c7 -3 16 -2 19 1 4 3 -2 6 -13 5 -11 0 -14 -3 -6 -6z"/>
<path d="M6440 6880 c0 -5 5 -10 10 -10 6 0 10 5 10 10 0 6 -4 10 -10 10 -5 0
-10 -4 -10 -10z"/>
<path d="M6390 6800 c0 -11 7 -20 15 -20 17 0 18 2 9 24 -9 23 -24 20 -24 -4z"/>
<path d="M6745 6800 c-3 -5 -1 -10 4 -10 6 0 11 5 11 10 0 6 -2 10 -4 10 -3 0
-8 -4 -11 -10z"/>
<path d="M6558 6793 c6 -2 18 -2 25 0 6 3 1 5 -13 5 -14 0 -19 -2 -12 -5z"/>
<path d="M6628 6783 c7 -3 16 -2 19 1 4 3 -2 6 -13 5 -11 0 -14 -3 -6 -6z"/>
<path d="M6595 6700 c-3 -5 -1 -10 4 -10 6 0 11 5 11 10 0 6 -2 10 -4 10 -3 0
-8 -4 -11 -10z"/>
<path d="M6678 6703 c7 -3 16 -2 19 1 4 3 -2 6 -13 5 -11 0 -14 -3 -6 -6z"/>
<path d="M6750 6680 c0 -5 5 -10 10 -10 6 0 10 5 10 10 0 6 -4 10 -10 10 -5 0
-10 -4 -10 -10z"/>
<path d="M6775 6661 c-3 -5 -1 -12 5 -16 12 -7 30 2 30 16 0 12 -27 12 -35 0z"/>
<path d="M6280 6636 c0 -8 4 -17 9 -21 6 -3 9 4 8 15 -1 23 -17 28 -17 6z"/>
<path d="M6780 6620 c0 -5 7 -10 16 -10 8 0 12 5 9 10 -3 6 -10 10 -16 10 -5
0 -9 -4 -9 -10z"/>
<path d="M6965 6590 c-3 -5 1 -10 9 -10 9 0 16 5 16 10 0 6 -4 10 -9 10 -6 0
-13 -4 -16 -10z"/>
<path d="M6530 6544 c-14 -3 -98 -21 -188 -41 -141 -32 -163 -39 -167 -57 -4
-21 -55 -522 -55 -542 0 -9 19 -8 69 2 305 58 439 161 522 402 33 95 18 182
-36 213 -32 18 -104 29 -145 23z"/>
<path d="M6875 6450 c-3 -5 1 -10 9 -10 9 0 16 5 16 10 0 6 -4 10 -9 10 -6 0
-13 -4 -16 -10z"/>
<path d="M7270 6413 c0 -7 -8 -13 -17 -13 -17 -1 -17 -1 0 -11 23 -13 40 0 27
21 -7 10 -10 11 -10 3z"/>
<path d="M7273 6325 c0 -27 2 -38 4 -22 2 15 2 37 0 50 -2 12 -4 0 -4 -28z"/>
<path d="M7270 6224 c0 -8 5 -12 10 -9 6 4 8 11 5 16 -9 14 -15 11 -15 -7z"/>
<path d="M6908 6163 c7 -3 16 -2 19 1 4 3 -2 6 -13 5 -11 0 -14 -3 -6 -6z"/>
<path d="M7272 6090 c-1 -51 2 -79 7 -70 5 8 5 47 1 85 l-7 70 -1 -85z"/>
<path d="M6800 6130 c0 -5 5 -10 11 -10 5 0 7 5 4 10 -3 6 -8 10 -11 10 -2 0
-4 -4 -4 -10z"/>
<path d="M5800 6082 c0 -5 7 -13 16 -16 10 -4 14 -1 12 6 -5 15 -28 23 -28 10z"/>
<path d="M6723 6068 c2 -7 12 -13 22 -13 10 0 20 6 23 13 2 7 -6 12 -23 12
-17 0 -25 -5 -22 -12z"/>
<path d="M5766 6031 c-4 -5 -1 -11 6 -13 19 -7 58 3 52 13 -7 12 -51 12 -58 0z"/>
<path d="M6550 5974 c0 -10 28 -34 41 -34 7 0 4 9 -9 20 -21 20 -32 25 -32 14z"/>
<path d="M6626 5945 c4 -8 8 -15 10 -15 2 0 4 7 4 15 0 8 -4 15 -10 15 -5 0
-7 -7 -4 -15z"/>
<path d="M6593 5903 c-18 -7 -16 -23 2 -23 8 0 15 7 15 15 0 8 -1 15 -2 14 -2
0 -9 -3 -15 -6z"/>
<path d="M6665 5859 c-10 -15 3 -25 16 -12 7 7 7 13 1 17 -6 3 -14 1 -17 -5z"/>
<path d="M6594 5835 c-9 -23 14 -45 26 -25 5 8 8 19 7 24 -6 17 -27 18 -33 1z"/>
<path d="M6647 5794 c-8 -8 1 -24 14 -24 5 0 9 7 9 15 0 15 -12 20 -23 9z"/>
<path d="M6325 5780 c-3 -5 1 -10 10 -10 9 0 13 5 10 10 -3 6 -8 10 -10 10 -2
0 -7 -4 -10 -10z"/>
<path d="M6677 5763 c-4 -3 -7 -11 -7 -17 0 -6 5 -5 12 2 6 6 9 14 7 17 -3 3
-9 2 -12 -2z"/>
<path d="M6628 5743 c7 -3 16 -2 19 1 4 3 -2 6 -13 5 -11 0 -14 -3 -6 -6z"/>
<path d="M6716 5726 c7 -19 38 -22 32 -3 -3 6 -12 13 -21 15 -12 2 -15 -1 -11
-12z"/>
<path d="M6710 5660 c0 -5 7 -7 15 -4 8 4 15 8 15 10 0 2 -7 4 -15 4 -8 0 -15
-4 -15 -10z"/>
<path d="M6697 5586 c-3 -8 -2 -18 4 -22 16 -9 22 2 11 21 -8 15 -10 16 -15 1z"/>
<path d="M6768 5533 c7 -3 16 -2 19 1 4 3 -2 6 -13 5 -11 0 -14 -3 -6 -6z"/>
<path d="M7110 5091 c0 -5 5 -13 10 -16 6 -3 10 -2 10 4 0 5 -4 13 -10 16 -5
3 -10 2 -10 -4z"/>
<path d="M7174 4854 c3 -9 6 -18 6 -20 0 -2 5 -4 10 -4 6 0 10 9 10 20 0 12
-7 20 -16 20 -11 0 -14 -5 -10 -16z"/>
<path d="M7075 4810 c3 -5 17 -10 31 -10 14 0 22 4 19 10 -3 6 -17 10 -31 10
-14 0 -22 -4 -19 -10z"/>
<path d="M8813 5694 c-8 -21 33 -58 55 -48 15 6 14 8 -5 11 -17 3 -23 11 -23
29 0 27 -17 33 -27 8z"/>
<path d="M8678 5683 c7 -3 16 -2 19 1 4 3 -2 6 -13 5 -11 0 -14 -3 -6 -6z"/>
<path d="M8760 5510 c0 -5 5 -10 10 -10 6 0 10 5 10 10 0 6 -4 10 -10 10 -5 0
-10 -4 -10 -10z"/>
<path d="M8975 5470 c-3 -5 1 -10 10 -10 9 0 13 5 10 10 -3 6 -8 10 -10 10 -2
0 -7 -4 -10 -10z"/>
<path d="M8948 5393 c7 -3 16 -2 19 1 4 3 -2 6 -13 5 -11 0 -14 -3 -6 -6z"/>
<path d="M9107 5314 c-10 -11 3 -24 24 -24 10 0 19 7 19 15 0 15 -31 21 -43 9z"/>
<path d="M9000 5196 c0 -10 9 -16 21 -16 24 0 21 23 -4 28 -10 2 -17 -3 -17
-12z"/>
<path d="M9170 5184 c0 -8 5 -12 10 -9 6 3 10 10 10 16 0 5 -4 9 -10 9 -5 0
-10 -7 -10 -16z"/>
<path d="M9060 5150 c-22 -6 -23 -8 -7 -15 20 -8 47 0 47 15 0 11 -4 11 -40 0z"/>
<path d="M9003 5043 c-24 -2 -43 -8 -43 -13 0 -13 102 -32 113 -21 10 10 -8
43 -22 39 -3 -1 -25 -3 -48 -5z"/>
<path d="M9150 5030 c0 -5 5 -10 10 -10 6 0 10 5 10 10 0 6 -4 10 -10 10 -5 0
-10 -4 -10 -10z"/>
<path d="M8968 4969 c-10 -5 -18 -14 -18 -19 0 -17 47 -11 71 10 l24 19 -30 0
c-16 0 -38 -4 -47 -10z"/>
<path d="M9120 4931 c0 -11 4 -22 8 -25 14 -9 35 12 29 28 -9 23 -37 20 -37
-3z"/>
<path d="M9007 4933 c-13 -12 -7 -23 13 -23 11 0 20 7 20 15 0 15 -21 21 -33
8z"/>
<path d="M8940 4860 c0 -5 5 -10 11 -10 5 0 7 5 4 10 -3 6 -8 10 -11 10 -2 0
-4 -4 -4 -10z"/>
<path d="M8850 4750 c0 -6 7 -10 15 -10 8 0 15 2 15 4 0 2 -7 6 -15 10 -8 3
-15 1 -15 -4z"/>
<path d="M8840 4659 c0 -5 5 -7 10 -4 6 3 10 8 10 11 0 2 -4 4 -10 4 -5 0 -10
-5 -10 -11z"/>
</g>
</svg>
